<svg width="60" height="60" viewBox="0 0 60 60" fill="none" xmlns="http://www.w3.org/2000/svg">
<path d="M30 -1.0235e-07C46.5684 -1.58876e-07 60 13.4316 60 30C60 46.5684 46.5684 60 30 60C13.4316 60 1.58876e-07 46.5684 1.0235e-07 30C4.5824e-08 13.4316 13.4316 -4.5824e-08 30 -1.0235e-07Z" fill="#4947C7"/>
<path d="M30.001 7.49902C42.4276 7.49902 52.501 17.5725 52.501 29.999C52.501 42.4256 42.4276 52.499 30.001 52.499C17.5745 52.499 7.50104 42.4256 7.50104 29.999C7.50104 17.5725 17.5745 7.49902 30.001 7.49902Z" fill="#7B79FF"/>
<path d="M35.6229 30.9324C35.3529 30.8114 35.0389 30.8584 34.8169 31.0564L30.6581 34.7592C30.4701 34.9262 30.3781 35.1762 30.4141 35.4262L31.0841 40.103C31.1241 40.384 31.3371 40.601 31.6061 40.691L31.8281 40.726C32.035 40.726 32.244 40.64 32.391 40.492C34.7599 38.1221 36.0649 34.9712 36.0649 31.6174C36.0659 31.3214 35.8929 31.0534 35.6229 30.9324V30.9324Z" fill="#992C29"/>
<path d="M28.4631 24.0139C25.1092 24.0139 21.9574 25.3189 19.5885 27.6878L19.5535 27.7218C19.3525 27.9228 19.2825 28.2197 19.3725 28.4887C19.4625 28.7587 19.6965 28.9537 19.9774 28.9937L24.6543 29.6637L24.7603 29.6717C24.9722 29.6717 25.1772 29.5817 25.3202 29.4207L29.0231 25.2619C29.2201 25.0409 29.2681 24.7259 29.1471 24.4559C29.0261 24.1869 28.7581 24.0139 28.4631 24.0139V24.0139Z" fill="#2196F3"/>
<path d="M29.9581 37.1504C29.7662 37.1504 29.5742 37.0764 29.4282 36.9304L23.1494 30.6517C22.8684 30.3707 22.8554 29.9187 23.1204 29.6217L27.8262 24.3509C31.1591 20.4501 36.5699 17.9022 41.3447 18.0042C41.7447 18.0132 42.0677 18.3362 42.0767 18.7361C42.1867 23.484 39.6318 28.9207 35.7179 32.2646L30.4591 36.9594C30.3151 37.0874 30.1371 37.1504 29.9581 37.1504V37.1504Z" fill="#F6BE4A"/>
<path d="M35.2128 27.3657C34.5719 27.3657 33.9319 27.1217 33.4449 26.6348C32.4709 25.6598 32.4709 24.0739 33.4449 23.0989C34.4199 22.1239 36.0058 22.1239 36.9808 23.0989C37.9547 24.0739 37.9547 25.6598 36.9808 26.6348C36.4928 27.1227 35.8528 27.3657 35.2128 27.3657Z" fill="#D09435"/>
<path d="M18.8306 41.999C18.6346 41.999 18.4426 41.922 18.3006 41.779C18.1056 41.584 18.0336 41.298 18.1126 41.033C18.3636 40.192 19.6725 35.9442 20.6945 34.9233C21.8874 33.7313 23.9653 33.7313 25.1563 34.9233C25.7523 35.5202 26.0803 36.3112 26.0803 37.1552C26.0803 37.9981 25.7523 38.7901 25.1563 39.3861C24.1353 40.407 19.8865 41.716 19.0465 41.968L18.8306 41.999Z" fill="#FE8821"/>
<path d="M28.1171 24.0178C24.8933 24.1048 21.8764 25.3998 19.5875 27.6877L19.5535 27.7217C19.3525 27.9227 19.2825 28.2197 19.3725 28.4886C19.4625 28.7586 19.6965 28.9536 19.9774 28.9936L23.2603 29.4646L27.8261 24.3498C27.9211 24.2388 28.0181 24.1278 28.1171 24.0178V24.0178Z" fill="#C94039"/>
<path d="M41.0657 18C36.4979 18 31.4021 20.3789 28.1172 24.0178C28.0182 24.1278 27.9212 24.2377 27.8252 24.3497L23.2604 29.4645L23.1204 29.6215C22.8554 29.9185 22.8684 30.3705 23.1494 30.6515L26.2893 33.7914L33.445 26.6357C32.471 25.6607 32.471 24.0748 33.445 23.0998C33.932 22.6128 34.573 22.3688 35.2129 22.3688C35.8529 22.3688 36.4939 22.6128 36.9809 23.0998L41.8577 18.223C41.7257 18.091 41.5447 18.008 41.3447 18.003C41.2517 18.001 41.1587 18 41.0657 18V18Z" fill="#FEED7F"/>
<path d="M35.2128 22.3687C34.5729 22.3687 33.9319 22.6126 33.4449 23.0996C32.4709 24.0746 32.4709 25.6605 33.4449 26.6355L36.9798 23.0996C36.4928 22.6116 35.8528 22.3687 35.2128 22.3687Z" fill="#F6BE4A"/>
<path d="M22.9254 34.0293C22.1074 34.0293 21.2905 34.3273 20.6935 34.9233C19.6725 35.9442 18.3636 40.1931 18.1116 41.033C18.0326 41.297 18.1046 41.584 18.2996 41.779L25.1553 34.9233C24.5603 34.3273 23.7434 34.0293 22.9254 34.0293V34.0293Z" fill="#FE9923"/>
</svg>
