<svg width="60" height="60" viewBox="0 0 60 60" fill="none" xmlns="http://www.w3.org/2000/svg">
<path d="M30 -1.0235e-07C46.5684 -1.58876e-07 60 13.4316 60 30C60 46.5684 46.5684 60 30 60C13.4316 60 1.58876e-07 46.5684 1.0235e-07 30C4.5824e-08 13.4316 13.4316 -4.5824e-08 30 -1.0235e-07Z" fill="#DE6E31"/>
<path d="M30.001 7.49902C42.4276 7.49902 52.501 17.5725 52.501 29.999C52.501 42.4256 42.4276 52.499 30.001 52.499C17.5745 52.499 7.50104 42.4256 7.50104 29.999C7.50104 17.5725 17.5745 7.49902 30.001 7.49902Z" fill="#F9CD6C"/>
<path d="M39.9704 24.9716L37.8771 21.8721C37.6924 21.5986 37.3384 21.4618 37.0151 21.5682C36.6918 21.6594 36.461 21.9633 36.461 22.2976C36.461 23.7865 36.2301 25.2755 35.7991 26.7189C35.4297 25.6705 34.7217 24.7437 33.752 24.1207C32.0434 22.9964 31.5817 20.7984 32.7207 19.1119L34.0598 17.1367C34.2137 16.9088 34.2292 16.6049 34.0906 16.3618C33.9675 16.1187 33.7058 15.9668 33.4133 15.9668C32.059 15.9668 30.7814 16.225 29.5962 16.696C25.9791 18.1243 23.3624 21.4315 23.1162 25.4578C22.8699 24.8044 22.7314 24.1055 22.7314 23.3914V20.4135C22.7314 20.0793 22.5005 19.7754 22.1773 19.6842C21.8541 19.5779 21.5 19.7147 21.3153 19.9881L20.2841 21.5227C18.3755 24.3487 17.375 27.6305 17.375 31.0188C17.3749 37.0202 22.3158 41.8974 28.3956 41.8974H30.7968C36.8765 41.8974 41.8379 37.0202 41.8379 31.0188C41.8379 28.8612 41.1864 26.7644 39.9704 24.9716Z" fill="#FE9923"/>
<path d="M30.258 29.4538C30.1196 29.1956 29.8578 29.074 29.5962 29.074C29.3346 29.074 29.0882 29.1956 28.9343 29.4538C25.7482 34.9084 25.0094 35.6073 25.0094 37.3698C25.0094 39.8616 27.0718 41.8975 29.5961 41.8975C32.1204 41.8975 34.1829 39.8616 34.1829 37.3698C34.1829 35.4402 32.8747 33.936 30.258 29.4538Z" fill="#FEDB41"/>
<path d="M41.8379 31.0188C41.8379 37.0202 36.8765 41.8974 30.7968 41.8974H29.5961V16.696C30.7814 16.225 32.0589 15.9668 33.4133 15.9668C33.7057 15.9668 33.9675 16.1187 34.0905 16.3618C34.2291 16.6049 34.2137 16.9088 34.0598 17.1367L32.7207 19.1119C31.5817 20.7984 32.0435 22.9964 33.7519 24.1207C34.7216 24.7437 35.4297 25.6705 35.7991 26.7189C36.23 25.2755 36.461 23.7865 36.461 22.2976C36.461 21.9633 36.6918 21.6594 37.0151 21.5682C37.3384 21.4619 37.6923 21.5987 37.877 21.8721L39.9704 24.9716C41.1864 26.7644 41.8379 28.8612 41.8379 31.0188Z" fill="#FE8821"/>
<path d="M34.1829 37.3698C34.1829 39.8616 32.1204 41.8975 29.5961 41.8975V29.074C29.8577 29.074 30.1195 29.1956 30.258 29.4538C32.8746 33.936 34.1829 35.4402 34.1829 37.3698Z" fill="#FCBF29"/>
</svg>
