<svg width="60" height="60" viewBox="0 0 60 60" fill="none" xmlns="http://www.w3.org/2000/svg">
<path d="M30 -1.0235e-07C46.5684 -1.58876e-07 60 13.4316 60 30C60 46.5684 46.5684 60 30 60C13.4316 60 1.58876e-07 46.5684 1.0235e-07 30C4.5824e-08 13.4316 13.4316 -4.5824e-08 30 -1.0235e-07Z" fill="#009688"/>
<path d="M30.0011 7.49915C42.4277 7.49915 52.5011 17.5726 52.5011 29.9991C52.5011 42.4257 42.4277 52.4991 30.0011 52.4991C17.5745 52.4991 7.5011 42.4257 7.5011 29.9991C7.5011 17.5726 17.5745 7.49915 30.0011 7.49915Z" fill="#A3E4C3"/>
<mask id="mask0_1575_25536" style="mask-type:alpha" maskUnits="userSpaceOnUse" x="17" y="17" width="26" height="24">
<path fill-rule="evenodd" clip-rule="evenodd" d="M41.6629 32.4567V37.1318C41.6629 38.8239 40.2912 40.1956 38.5991 40.1956H21.365C19.6728 40.1956 18.3011 38.8239 18.3011 37.1318V32.4567H17.5352V25.0721C17.5352 22.3407 17.8196 21.3502 18.3536 20.3516C18.8877 19.353 19.6714 18.5693 20.6699 18.0353C21.6685 17.5012 22.659 17.2168 25.3905 17.2168H34.5735C37.305 17.2168 38.2955 17.5012 39.2941 18.0353C40.2927 18.5693 41.0764 19.353 41.6104 20.3516C42.1445 21.3502 42.4289 22.3407 42.4289 25.0721V32.4567H41.6629Z" fill="white"/>
</mask>
<g mask="url(#mask0_1575_25536)">
<path fill-rule="evenodd" clip-rule="evenodd" d="M41.6629 32.4557V37.1308C41.6629 38.8229 40.2912 40.1947 38.5991 40.1947H21.365C19.6728 40.1947 18.3011 38.8229 18.3011 37.1308V32.4557H17.5352V25.0712C17.5352 22.3397 17.8196 21.3492 18.3536 20.3506C18.8877 19.352 19.6714 18.5683 20.6699 18.0343C21.6685 17.5002 22.659 17.2158 25.3905 17.2158H34.5735C37.305 17.2158 38.2955 17.5002 39.2941 18.0343C40.2927 18.5683 41.0764 19.352 41.6104 20.3506C42.1445 21.3492 42.4289 22.3397 42.4289 25.0712V32.4557H41.6629Z" fill="#0076DE"/>
<path d="M42.814 17.2148H17.1543V40.1937H42.814V17.2148Z" fill="#009688"/>
<path d="M41.6626 32.5352H18.3008V40.1948H41.6626V32.5352Z" fill="black" fill-opacity="0.8"/>
<path fill-rule="evenodd" clip-rule="evenodd" d="M31.4012 23.7275H21.9385H21.1725V17.2168H21.9385V22.9615H31.4012C31.5489 22.6234 31.8864 22.387 32.279 22.387C32.8078 22.387 33.2364 22.8157 33.2364 23.3445C33.2364 23.8733 32.8078 24.3019 32.279 24.3019C31.8864 24.3019 31.5489 24.0656 31.4012 23.7275ZM19.6406 17.2168H20.4066V20.6636H19.6406V17.2168Z" fill="black" fill-opacity="0.1"/>
<path fill-rule="evenodd" clip-rule="evenodd" d="M40.897 23.8392V28.7062H44.5353V29.4721H40.897H40.131V23.8392C39.7928 23.6915 39.5565 23.3541 39.5565 22.9614C39.5565 22.4327 39.9852 22.004 40.514 22.004C41.0428 22.004 41.4714 22.4327 41.4714 22.9614C41.4714 23.3541 41.2351 23.6915 40.897 23.8392Z" fill="white" fill-opacity="0.2"/>
<path fill-rule="evenodd" clip-rule="evenodd" d="M39.3656 30.2384H44.5358V31.0043H39.3656H38.5996V26.0256H39.3656V30.2384Z" fill="black" fill-opacity="0.2"/>
<path fill-rule="evenodd" clip-rule="evenodd" d="M22.7047 37.0522V41.9192H19.0664V42.6851H22.7047H23.4707V37.0522C23.8088 36.9045 24.0452 36.5671 24.0452 36.1745C24.0452 35.6457 23.6165 35.217 23.0877 35.217C22.5589 35.217 22.1303 35.6457 22.1303 36.1745C22.1303 36.5671 22.3666 36.9045 22.7047 37.0522Z" fill="black" fill-opacity="0.2"/>
</g>
<path d="M35.5346 33.4922H24.4282C23.8994 33.4922 23.4707 33.9209 23.4707 34.4496V36.7475C23.4707 37.2763 23.8994 37.705 24.4282 37.705H35.5346C36.0634 37.705 36.492 37.2763 36.492 36.7475V34.4496C36.492 33.9209 36.0634 33.4922 35.5346 33.4922Z" fill="black" fill-opacity="0.2"/>
<path d="M35.3428 34.2578H24.6193C24.4078 34.2578 24.2363 34.4293 24.2363 34.6408V36.5557C24.2363 36.7672 24.4078 36.9387 24.6193 36.9387H35.3428C35.5543 36.9387 35.7257 36.7672 35.7257 36.5557V34.6408C35.7257 34.4293 35.5543 34.2578 35.3428 34.2578Z" fill="black" fill-opacity="0.6"/>
<path fill-rule="evenodd" clip-rule="evenodd" d="M26.5347 35.79L27.6836 34.2581H25.3857L26.5347 35.79Z" fill="#E1E6E8"/>
<path fill-rule="evenodd" clip-rule="evenodd" d="M28.8325 35.79L29.9815 34.2581H27.6836L28.8325 35.79Z" fill="#E1E6E8"/>
<path fill-rule="evenodd" clip-rule="evenodd" d="M31.1304 35.79L32.2793 34.2581H29.9814L31.1304 35.79Z" fill="#E1E6E8"/>
<path fill-rule="evenodd" clip-rule="evenodd" d="M33.4281 35.7901L34.5771 34.2582H32.2792L33.4281 35.7901Z" fill="#E1E6E8"/>
<mask id="mask1_1575_25536" style="mask-type:alpha" maskUnits="userSpaceOnUse" x="21" y="26" width="18" height="4">
<path d="M38.0249 26.4082H22.1312C21.7082 26.4082 21.3652 26.7511 21.3652 27.1742V28.7061C21.3652 29.1291 21.7082 29.472 22.1312 29.472H38.0249C38.4479 29.472 38.7909 29.1291 38.7909 28.7061V27.1742C38.7909 26.7511 38.4479 26.4082 38.0249 26.4082Z" fill="white"/>
</mask>
<g mask="url(#mask1_1575_25536)">
<path d="M38.0238 26.4073H22.1301C21.7071 26.4073 21.3641 26.7502 21.3641 27.1732V28.7051C21.3641 29.1282 21.7071 29.4711 22.1301 29.4711H38.0238C38.4468 29.4711 38.7898 29.1282 38.7898 28.7051V27.1732C38.7898 26.7502 38.4468 26.4073 38.0238 26.4073Z" fill="black" fill-opacity="0.8"/>
<path fill-rule="evenodd" clip-rule="evenodd" d="M34.5772 24.6836H38.024L35.7261 30.4283H32.2793L34.5772 24.6836Z" fill="white" fill-opacity="0.8"/>
<path fill-rule="evenodd" clip-rule="evenodd" d="M29.9815 24.6836H31.7049L29.407 30.4283H27.6836L29.9815 24.6836Z" fill="white" fill-opacity="0.8"/>
</g>
</svg>
