<svg width="46" height="46" viewBox="0 0 46 46" fill="none" xmlns="http://www.w3.org/2000/svg">
<g filter="url(#filter0_d_1575_25686)">
<rect x="3" y="2" width="40" height="40" rx="10" fill="#4947C7"/>
</g>
<g clip-path="url(#clip0_1575_25686)">
<path fill-rule="evenodd" clip-rule="evenodd" d="M24.0909 14.1057C24.7431 13.7253 25.1818 13.0143 25.1818 12.2C25.1818 10.985 24.205 10 23 10C21.795 10 20.8182 10.985 20.8182 12.2C20.8182 13.0143 21.2569 13.7253 21.9091 14.1057V15.5H20.8182C16.6007 15.5 13.1818 18.9474 13.1818 23.2H12.0909C11.4884 23.2 11 23.6925 11 24.3V27.6C11 28.2075 11.4884 28.7 12.0909 28.7H13.1818V29.8C13.1818 31.015 14.1587 32 15.3636 32H30.6364C31.8413 32 32.8182 31.015 32.8182 29.8V28.7H33.9091C34.5116 28.7 35 28.2075 35 27.6V24.3C35 23.6925 34.5116 23.2 33.9091 23.2H32.8182C32.8182 18.9474 29.3993 15.5 25.1818 15.5H24.0909V14.1057ZM15.3636 24.85C15.3636 23.8219 15.3636 23.3079 15.5829 22.925C15.7265 22.6741 15.9331 22.4659 16.1818 22.321C16.5616 22.1 17.0713 22.1 18.0909 22.1C19.1105 22.1 19.6203 22.1 20 22.321C20.2488 22.4659 20.4553 22.6741 20.599 22.925C20.8182 23.3079 20.8182 23.8219 20.8182 24.85C20.8182 25.8781 20.8182 26.3921 20.599 26.775C20.4553 27.0259 20.2488 27.2341 20 27.379C19.6203 27.6 19.1105 27.6 18.0909 27.6C17.0713 27.6 16.5616 27.6 16.1818 27.379C15.9331 27.2341 15.7265 27.0259 15.5829 26.775C15.3636 26.3921 15.3636 25.8781 15.3636 24.85ZM25.401 22.925C25.1818 23.3079 25.1818 23.8219 25.1818 24.85C25.1818 25.8781 25.1818 26.3921 25.401 26.775C25.5447 27.0259 25.7512 27.2341 26 27.379C26.3797 27.6 26.8895 27.6 27.9091 27.6C28.9287 27.6 29.4384 27.6 29.8182 27.379C30.067 27.2341 30.2735 27.0259 30.4171 26.775C30.6364 26.3921 30.6364 25.8781 30.6364 24.85C30.6364 23.8219 30.6364 23.3079 30.4171 22.925C30.2735 22.6741 30.067 22.4659 29.8182 22.321C29.4384 22.1 28.9287 22.1 27.9091 22.1C26.8895 22.1 26.3797 22.1 26 22.321C25.7512 22.4659 25.5447 22.6741 25.401 22.925Z" fill="white"/>
</g>
<defs>
<filter id="filter0_d_1575_25686" x="0" y="0" width="46" height="46" filterUnits="userSpaceOnUse" color-interpolation-filters="sRGB">
<feFlood flood-opacity="0" result="BackgroundImageFix"/>
<feColorMatrix in="SourceAlpha" type="matrix" values="0 0 0 0 0 0 0 0 0 0 0 0 0 0 0 0 0 0 127 0" result="hardAlpha"/>
<feOffset dy="1"/>
<feGaussianBlur stdDeviation="1.5"/>
<feColorMatrix type="matrix" values="0 0 0 0 0 0 0 0 0 0 0 0 0 0 0 0 0 0 0.25 0"/>
<feBlend mode="normal" in2="BackgroundImageFix" result="effect1_dropShadow_1575_25686"/>
<feBlend mode="normal" in="SourceGraphic" in2="effect1_dropShadow_1575_25686" result="shape"/>
</filter>
<clipPath id="clip0_1575_25686">
<rect width="24" height="22" fill="white" transform="translate(11 10)"/>
</clipPath>
</defs>
</svg>
