<svg width="308" height="574" viewBox="0 0 308 574" fill="none" xmlns="http://www.w3.org/2000/svg">
<g filter="url(#filter0_d_1575_25919)">
<g clip-path="url(#clip0_1575_25919)">
<path d="M262.667 20H45.3333C33.5513 20 24 29.5513 24 41.3333V524C24 535.782 33.5513 545.333 45.3333 545.333H262.667C274.449 545.333 284 535.782 284 524V41.3333C284 29.5513 274.449 20 262.667 20Z" fill="#030227"/>
<path d="M142 481.333H46.6667C43.353 481.333 40.6667 484.02 40.6667 487.333V506C40.6667 509.314 43.353 512 46.6667 512H142C145.314 512 148 509.314 148 506V487.333C148 484.02 145.314 481.333 142 481.333Z" stroke="#E93F2F" stroke-width="2"/>
<path d="M52.6133 500.667L55.9733 493.2H57.3387L60.7093 500.667H59.2587L56.368 493.936H56.9227L54.0427 500.667H52.6133ZM54.16 498.939L54.5333 497.851H58.5653L58.9387 498.939H54.16ZM61.5309 500.667V492.752H62.8643V500.667H61.5309ZM64.6143 500.667V494.971H65.8836V496.539L65.7343 496.08C65.9049 495.696 66.1716 495.405 66.5343 495.205C66.904 495.006 67.3627 494.907 67.9103 494.907V496.176C67.8533 496.162 67.8 496.155 67.7503 496.155C67.7005 496.147 67.6507 496.144 67.6009 496.144C67.096 496.144 66.6943 496.293 66.3956 496.592C66.0969 496.883 65.9476 497.321 65.9476 497.904V500.667H64.6143ZM71.6666 500.741C71.0337 500.741 70.479 500.617 70.0026 500.368C69.5333 500.112 69.167 499.763 68.9039 499.323C68.6479 498.882 68.5199 498.381 68.5199 497.819C68.5199 497.25 68.6443 496.749 68.8933 496.315C69.1493 495.874 69.4977 495.529 69.9386 495.28C70.3866 495.031 70.895 494.907 71.4639 494.907C72.0186 494.907 72.5128 495.027 72.9466 495.269C73.3803 495.511 73.7217 495.853 73.9706 496.293C74.2195 496.734 74.3439 497.253 74.3439 497.851C74.3439 497.907 74.3403 497.971 74.3333 498.043C74.3333 498.114 74.3297 498.181 74.3226 498.245H69.5759V497.36H73.6186L73.0959 497.637C73.103 497.31 73.0355 497.022 72.8933 496.773C72.751 496.525 72.5555 496.329 72.3066 496.187C72.0648 496.045 71.7839 495.973 71.4639 495.973C71.1368 495.973 70.8488 496.045 70.5999 496.187C70.3581 496.329 70.1661 496.528 70.0239 496.784C69.8888 497.033 69.8213 497.328 69.8213 497.669V497.883C69.8213 498.224 69.8995 498.526 70.0559 498.789C70.2123 499.053 70.4328 499.255 70.7173 499.397C71.0017 499.539 71.3288 499.611 71.6986 499.611C72.0186 499.611 72.3066 499.561 72.5626 499.461C72.8186 499.362 73.0461 499.205 73.2453 498.992L73.9599 499.813C73.7039 500.112 73.3803 500.343 72.9893 500.507C72.6053 500.663 72.1643 500.741 71.6666 500.741ZM78.9777 500.667V499.515L78.9031 499.269V497.253C78.9031 496.862 78.7857 496.56 78.5511 496.347C78.3164 496.126 77.9609 496.016 77.4844 496.016C77.1644 496.016 76.848 496.066 76.5351 496.165C76.2293 496.265 75.9697 496.403 75.7564 496.581L75.2337 495.611C75.5395 495.376 75.9022 495.202 76.3217 495.088C76.7484 494.967 77.1893 494.907 77.6444 494.907C78.4693 494.907 79.1057 495.106 79.5537 495.504C80.0089 495.895 80.2364 496.503 80.2364 497.328V500.667H78.9777ZM77.1857 500.741C76.7591 500.741 76.3857 500.67 76.0657 500.528C75.7457 500.379 75.4969 500.176 75.3191 499.92C75.1484 499.657 75.0631 499.362 75.0631 499.035C75.0631 498.715 75.1377 498.427 75.2871 498.171C75.4435 497.915 75.696 497.712 76.0444 497.563C76.3929 497.413 76.8551 497.339 77.4311 497.339H79.0844V498.224H77.5271C77.072 498.224 76.7662 498.299 76.6097 498.448C76.4533 498.59 76.3751 498.768 76.3751 498.981C76.3751 499.223 76.4711 499.415 76.6631 499.557C76.8551 499.699 77.1217 499.771 77.4631 499.771C77.7902 499.771 78.0817 499.696 78.3377 499.547C78.6009 499.397 78.7893 499.177 78.9031 498.885L79.1271 499.685C78.9991 500.019 78.768 500.279 78.4337 500.464C78.1067 500.649 77.6907 500.741 77.1857 500.741ZM84.3687 500.741C83.8211 500.741 83.3269 500.621 82.886 500.379C82.4522 500.13 82.1109 499.789 81.862 499.355C81.6131 498.921 81.4887 498.409 81.4887 497.819C81.4887 497.229 81.6131 496.717 81.862 496.283C82.1109 495.849 82.4522 495.511 82.886 495.269C83.3269 495.027 83.8211 494.907 84.3687 494.907C84.8451 494.907 85.2718 495.013 85.6487 495.227C86.0255 495.433 86.3242 495.749 86.5447 496.176C86.7651 496.603 86.8753 497.15 86.8753 497.819C86.8753 498.48 86.7687 499.027 86.5553 499.461C86.342 499.888 86.0469 500.208 85.67 500.421C85.2931 500.635 84.8593 500.741 84.3687 500.741ZM84.5287 499.6C84.8487 499.6 85.1331 499.529 85.382 499.387C85.638 499.245 85.8407 499.038 85.99 498.768C86.1465 498.498 86.2247 498.181 86.2247 497.819C86.2247 497.449 86.1465 497.133 85.99 496.869C85.8407 496.599 85.638 496.393 85.382 496.251C85.1331 496.109 84.8487 496.037 84.5287 496.037C84.2087 496.037 83.9207 496.109 83.6647 496.251C83.4158 496.393 83.2131 496.599 83.0567 496.869C82.9073 497.133 82.8327 497.449 82.8327 497.819C82.8327 498.181 82.9073 498.498 83.0567 498.768C83.2131 499.038 83.4158 499.245 83.6647 499.387C83.9207 499.529 84.2087 499.6 84.5287 499.6ZM86.2567 500.667V499.323L86.31 497.808L86.2033 496.293V492.752H87.526V500.667H86.2567ZM89.7503 502.811C89.4729 502.811 89.1956 502.765 88.9183 502.672C88.6409 502.579 88.4098 502.451 88.2249 502.288L88.7583 501.307C88.8933 501.427 89.0463 501.523 89.2169 501.595C89.3876 501.666 89.5618 501.701 89.7396 501.701C89.9813 501.701 90.1769 501.641 90.3263 501.52C90.4756 501.399 90.6143 501.197 90.742 500.912L91.0727 500.165L91.1793 500.005L93.334 494.971H94.614L91.9473 501.125C91.77 501.552 91.5707 501.89 91.35 502.139C91.1367 502.387 90.8953 502.562 90.6249 502.661C90.3618 502.761 90.0703 502.811 89.7503 502.811ZM90.9233 500.869L88.3529 494.971H89.7396L91.83 499.888L90.9233 500.869ZM99.4833 499.397L99.5153 497.723L102.491 494.971H104.091L101.563 497.509L100.859 498.096L99.4833 499.397ZM98.3953 500.667V492.752H99.7287V500.667H98.3953ZM102.694 500.667L100.614 498.096L101.457 497.029L104.315 500.667H102.694ZM108.357 494.907C108.812 494.907 109.217 494.995 109.573 495.173C109.935 495.351 110.22 495.625 110.426 495.995C110.632 496.357 110.735 496.827 110.735 497.403V500.667H109.402V497.573C109.402 497.069 109.281 496.691 109.039 496.443C108.805 496.194 108.474 496.069 108.047 496.069C107.735 496.069 107.457 496.133 107.215 496.261C106.973 496.389 106.785 496.581 106.65 496.837C106.522 497.086 106.458 497.403 106.458 497.787V500.667H105.125V494.971H106.394V496.507L106.17 496.037C106.369 495.675 106.657 495.397 107.034 495.205C107.418 495.006 107.859 494.907 108.357 494.907ZM114.997 500.741C114.414 500.741 113.895 500.617 113.44 500.368C112.985 500.112 112.625 499.763 112.363 499.323C112.099 498.882 111.968 498.381 111.968 497.819C111.968 497.25 112.099 496.749 112.363 496.315C112.625 495.874 112.985 495.529 113.44 495.28C113.895 495.031 114.414 494.907 114.997 494.907C115.587 494.907 116.11 495.031 116.565 495.28C117.027 495.529 117.387 495.87 117.643 496.304C117.905 496.738 118.037 497.243 118.037 497.819C118.037 498.381 117.905 498.882 117.643 499.323C117.387 499.763 117.027 500.112 116.565 500.368C116.11 500.617 115.587 500.741 114.997 500.741ZM114.997 499.6C115.324 499.6 115.616 499.529 115.872 499.387C116.128 499.245 116.327 499.038 116.469 498.768C116.619 498.498 116.693 498.181 116.693 497.819C116.693 497.449 116.619 497.133 116.469 496.869C116.327 496.599 116.128 496.393 115.872 496.251C115.616 496.109 115.328 496.037 115.008 496.037C114.681 496.037 114.389 496.109 114.133 496.251C113.884 496.393 113.685 496.599 113.536 496.869C113.387 497.133 113.312 497.449 113.312 497.819C113.312 498.181 113.387 498.498 113.536 498.768C113.685 499.038 113.884 499.245 114.133 499.387C114.389 499.529 114.677 499.6 114.997 499.6ZM120.415 500.667L118.324 494.971H119.583L121.375 499.995H120.777L122.655 494.971H123.775L125.599 499.995H125.012L126.857 494.971H128.041L125.94 500.667H124.66L122.996 496.219H123.391L121.695 500.667H120.415ZM132.19 494.907C132.645 494.907 133.051 494.995 133.406 495.173C133.769 495.351 134.053 495.625 134.259 495.995C134.465 496.357 134.569 496.827 134.569 497.403V500.667H133.235V497.573C133.235 497.069 133.115 496.691 132.873 496.443C132.638 496.194 132.307 496.069 131.881 496.069C131.568 496.069 131.291 496.133 131.049 496.261C130.807 496.389 130.619 496.581 130.483 496.837C130.355 497.086 130.291 497.403 130.291 497.787V500.667H128.958V494.971H130.227V496.507L130.003 496.037C130.203 495.675 130.491 495.397 130.867 495.205C131.251 495.006 131.692 494.907 132.19 494.907Z" fill="#E93F2F"/>
<path d="M261.333 481.333H166C162.686 481.333 160 484.02 160 487.333V506C160 509.314 162.686 512 166 512H261.333C264.647 512 267.333 509.314 267.333 506V487.333C267.333 484.02 264.647 481.333 261.333 481.333Z" stroke="#00A477" stroke-width="2"/>
<path d="M194.184 500.667V494.373H191.709V493.2H198.045V494.373H195.571V500.667H194.184ZM200.935 500.741C200.351 500.741 199.833 500.617 199.377 500.368C198.922 500.112 198.563 499.763 198.3 499.323C198.037 498.882 197.905 498.381 197.905 497.819C197.905 497.25 198.037 496.749 198.3 496.315C198.563 495.874 198.922 495.529 199.377 495.28C199.833 495.031 200.351 494.907 200.935 494.907C201.525 494.907 202.047 495.031 202.503 495.28C202.965 495.529 203.324 495.87 203.58 496.304C203.843 496.738 203.975 497.243 203.975 497.819C203.975 498.381 203.843 498.882 203.58 499.323C203.324 499.763 202.965 500.112 202.503 500.368C202.047 500.617 201.525 500.741 200.935 500.741ZM200.935 499.6C201.262 499.6 201.553 499.529 201.809 499.387C202.065 499.245 202.265 499.038 202.407 498.768C202.556 498.498 202.631 498.181 202.631 497.819C202.631 497.449 202.556 497.133 202.407 496.869C202.265 496.599 202.065 496.393 201.809 496.251C201.553 496.109 201.265 496.037 200.945 496.037C200.618 496.037 200.327 496.109 200.071 496.251C199.822 496.393 199.623 496.599 199.473 496.869C199.324 497.133 199.249 497.449 199.249 497.819C199.249 498.181 199.324 498.498 199.473 498.768C199.623 499.038 199.822 499.245 200.071 499.387C200.327 499.529 200.615 499.6 200.935 499.6ZM208.197 500.667V492.752H209.531V500.667H208.197ZM213.958 500.741C213.325 500.741 212.771 500.617 212.294 500.368C211.825 500.112 211.459 499.763 211.195 499.323C210.939 498.882 210.811 498.381 210.811 497.819C210.811 497.25 210.936 496.749 211.185 496.315C211.441 495.874 211.789 495.529 212.23 495.28C212.678 495.031 213.187 494.907 213.755 494.907C214.31 494.907 214.805 495.027 215.238 495.269C215.672 495.511 216.013 495.853 216.262 496.293C216.511 496.734 216.635 497.253 216.635 497.851C216.635 497.907 216.632 497.971 216.625 498.043C216.625 498.114 216.621 498.181 216.614 498.245H211.867V497.36H215.91L215.387 497.637C215.395 497.31 215.327 497.022 215.185 496.773C215.043 496.525 214.847 496.329 214.598 496.187C214.357 496.045 214.075 495.973 213.755 495.973C213.429 495.973 213.141 496.045 212.891 496.187C212.65 496.329 212.458 496.528 212.315 496.784C212.181 497.033 212.113 497.328 212.113 497.669V497.883C212.113 498.224 212.191 498.526 212.347 498.789C212.504 499.053 212.725 499.255 213.009 499.397C213.293 499.539 213.621 499.611 213.99 499.611C214.31 499.611 214.598 499.561 214.854 499.461C215.11 499.362 215.338 499.205 215.537 498.992L216.251 499.813C215.995 500.112 215.672 500.343 215.281 500.507C214.897 500.663 214.456 500.741 213.958 500.741ZM221.269 500.667V499.515L221.195 499.269V497.253C221.195 496.862 221.077 496.56 220.843 496.347C220.608 496.126 220.253 496.016 219.776 496.016C219.456 496.016 219.139 496.066 218.827 496.165C218.521 496.265 218.261 496.403 218.048 496.581L217.525 495.611C217.831 495.376 218.194 495.202 218.613 495.088C219.04 494.967 219.481 494.907 219.936 494.907C220.761 494.907 221.397 495.106 221.845 495.504C222.301 495.895 222.528 496.503 222.528 497.328V500.667H221.269ZM219.477 500.741C219.051 500.741 218.677 500.67 218.357 500.528C218.037 500.379 217.789 500.176 217.611 499.92C217.44 499.657 217.355 499.362 217.355 499.035C217.355 498.715 217.429 498.427 217.579 498.171C217.735 497.915 217.987 497.712 218.336 497.563C218.685 497.413 219.147 497.339 219.723 497.339H221.376V498.224H219.819C219.363 498.224 219.058 498.299 218.901 498.448C218.745 498.59 218.667 498.768 218.667 498.981C218.667 499.223 218.763 499.415 218.955 499.557C219.147 499.699 219.413 499.771 219.755 499.771C220.082 499.771 220.373 499.696 220.629 499.547C220.893 499.397 221.081 499.177 221.195 498.885L221.419 499.685C221.291 500.019 221.059 500.279 220.725 500.464C220.398 500.649 219.982 500.741 219.477 500.741ZM224.239 500.667V494.971H225.509V496.539L225.359 496.08C225.53 495.696 225.797 495.405 226.159 495.205C226.529 495.006 226.988 494.907 227.535 494.907V496.176C227.479 496.162 227.425 496.155 227.375 496.155C227.325 496.147 227.276 496.144 227.226 496.144C226.721 496.144 226.319 496.293 226.021 496.592C225.722 496.883 225.573 497.321 225.573 497.904V500.667H224.239ZM231.899 494.907C232.353 494.907 232.759 494.995 233.115 495.173C233.477 495.351 233.761 495.625 233.968 495.995C234.174 496.357 234.277 496.827 234.277 497.403V500.667H232.944V497.573C232.944 497.069 232.823 496.691 232.581 496.443C232.347 496.194 232.016 496.069 231.589 496.069C231.276 496.069 230.999 496.133 230.757 496.261C230.515 496.389 230.327 496.581 230.192 496.837C230.064 497.086 230 497.403 230 497.787V500.667H228.667V494.971H229.936V496.507L229.712 496.037C229.911 495.675 230.199 495.397 230.576 495.205C230.96 495.006 231.401 494.907 231.899 494.907Z" fill="#00A477"/>
<path d="M53.3333 63.3334C60.6971 63.3334 66.6667 57.3638 66.6667 50C66.6667 42.6362 60.6971 36.6667 53.3333 36.6667C45.9695 36.6667 40 42.6362 40 50C40 57.3638 45.9695 63.3334 53.3333 63.3334Z" fill="white"/>
<path d="M57.3333 50C57.3333 49.5912 57.0353 49.2601 56.6673 49.2601C56.3486 49.2601 52.624 49.2601 51.6306 49.2601L53.608 47.0405L52.6713 46L49.5286 49.4683C49.398 49.6127 49.3333 49.8067 49.3333 50.0007C49.3333 50.1941 49.3986 50.3873 49.5286 50.5317L52.6713 54L53.608 52.9595L51.6306 50.7399C52.624 50.7399 56.3486 50.7399 56.6673 50.7399C57.0353 50.7399 57.3333 50.4088 57.3333 50Z" fill="black"/>
<path d="M82.9067 54.8C82.1955 54.8 81.5333 54.6845 80.92 54.4534C80.3155 54.2134 79.7867 53.88 79.3333 53.4534C78.8889 53.0178 78.5422 52.5067 78.2933 51.92C78.0445 51.3334 77.92 50.6934 77.92 50C77.92 49.3067 78.0445 48.6667 78.2933 48.08C78.5422 47.4934 78.8933 46.9867 79.3466 46.56C79.8 46.1245 80.3289 45.7912 80.9333 45.56C81.5378 45.32 82.2 45.2 82.92 45.2C83.6844 45.2 84.3822 45.3334 85.0133 45.6C85.6444 45.8578 86.1778 46.2445 86.6133 46.76L85.4933 47.8134C85.1555 47.4489 84.7778 47.1778 84.36 47C83.9422 46.8134 83.4889 46.72 83 46.72C82.5111 46.72 82.0622 46.8 81.6533 46.96C81.2533 47.12 80.9022 47.3467 80.6 47.64C80.3067 47.9334 80.0755 48.28 79.9067 48.68C79.7467 49.08 79.6667 49.52 79.6667 50C79.6667 50.48 79.7467 50.92 79.9067 51.32C80.0755 51.72 80.3067 52.0667 80.6 52.36C80.9022 52.6534 81.2533 52.88 81.6533 53.04C82.0622 53.2 82.5111 53.28 83 53.28C83.4889 53.28 83.9422 53.1912 84.36 53.0134C84.7778 52.8267 85.1555 52.5467 85.4933 52.1734L86.6133 53.24C86.1778 53.7467 85.6444 54.1334 85.0133 54.4C84.3822 54.6667 83.68 54.8 82.9067 54.8ZM88.1142 54.6667V47.5467H89.7809V54.6667H88.1142ZM88.9542 46.3734C88.6431 46.3734 88.3853 46.2756 88.1809 46.08C87.9853 45.8845 87.8875 45.6489 87.8875 45.3734C87.8875 45.0889 87.9853 44.8534 88.1809 44.6667C88.3853 44.4712 88.6431 44.3734 88.9542 44.3734C89.2653 44.3734 89.5186 44.4667 89.7142 44.6534C89.9186 44.8312 90.0209 45.0578 90.0209 45.3334C90.0209 45.6267 89.9231 45.8756 89.7275 46.08C89.5319 46.2756 89.2742 46.3734 88.9542 46.3734ZM96.0087 47.4667C96.5773 47.4667 97.084 47.5778 97.5287 47.8C97.982 48.0222 98.3373 48.3645 98.5953 48.8267C98.8526 49.28 98.982 49.8667 98.982 50.5867V54.6667H97.3153V50.8C97.3153 50.1689 97.164 49.6978 96.862 49.3867C96.5687 49.0756 96.1553 48.92 95.622 48.92C95.2307 48.92 94.884 49 94.582 49.16C94.2793 49.32 94.044 49.56 93.8753 49.88C93.7153 50.1912 93.6353 50.5867 93.6353 51.0667V54.6667H91.9687V47.5467H93.5553V49.4667L93.2753 48.88C93.524 48.4267 93.884 48.08 94.3553 47.84C94.8353 47.5912 95.386 47.4667 96.0087 47.4667ZM104.455 54.76C103.665 54.76 102.971 54.6045 102.375 54.2934C101.789 53.9734 101.331 53.5378 101.002 52.9867C100.682 52.4356 100.522 51.8089 100.522 51.1067C100.522 50.3956 100.678 49.7689 100.989 49.2267C101.309 48.6756 101.745 48.2445 102.295 47.9334C102.855 47.6222 103.491 47.4667 104.202 47.4667C104.895 47.4667 105.513 47.6178 106.055 47.92C106.598 48.2222 107.025 48.6489 107.335 49.2C107.647 49.7512 107.802 50.4 107.802 51.1467C107.802 51.2178 107.798 51.2978 107.789 51.3867C107.789 51.4756 107.785 51.56 107.775 51.64H101.842V50.5334H106.895L106.242 50.88C106.251 50.4712 106.167 50.1112 105.989 49.8C105.811 49.4889 105.567 49.2445 105.255 49.0667C104.953 48.8889 104.602 48.8 104.202 48.8C103.793 48.8 103.433 48.8889 103.122 49.0667C102.82 49.2445 102.58 49.4934 102.402 49.8134C102.233 50.1245 102.149 50.4934 102.149 50.92V51.1867C102.149 51.6134 102.247 51.9912 102.442 52.32C102.638 52.6489 102.913 52.9022 103.269 53.08C103.625 53.2578 104.033 53.3467 104.495 53.3467C104.895 53.3467 105.255 53.2845 105.575 53.16C105.895 53.0356 106.18 52.84 106.429 52.5734L107.322 53.6C107.002 53.9734 106.598 54.2622 106.109 54.4667C105.629 54.6622 105.078 54.76 104.455 54.76ZM118.39 47.4667C118.959 47.4667 119.461 47.5778 119.897 47.8C120.341 48.0222 120.688 48.3645 120.937 48.8267C121.185 49.28 121.31 49.8667 121.31 50.5867V54.6667H119.643V50.8C119.643 50.1689 119.505 49.6978 119.23 49.3867C118.955 49.0756 118.559 48.92 118.043 48.92C117.679 48.92 117.355 49 117.07 49.16C116.795 49.32 116.577 49.5556 116.417 49.8667C116.265 50.1778 116.19 50.5734 116.19 51.0534V54.6667H114.523V50.8C114.523 50.1689 114.385 49.6978 114.11 49.3867C113.835 49.0756 113.439 48.92 112.923 48.92C112.559 48.92 112.235 49 111.95 49.16C111.675 49.32 111.457 49.5556 111.297 49.8667C111.145 50.1778 111.07 50.5734 111.07 51.0534V54.6667H109.403V47.5467H110.99V49.44L110.71 48.88C110.95 48.4178 111.297 48.0667 111.75 47.8267C112.212 47.5867 112.737 47.4667 113.323 47.4667C113.99 47.4667 114.568 47.6312 115.057 47.96C115.555 48.2889 115.883 48.7867 116.043 49.4534L115.39 49.2267C115.621 48.6934 116.003 48.2667 116.537 47.9467C117.07 47.6267 117.688 47.4667 118.39 47.4667ZM127.827 54.6667V53.2267L127.733 52.92V50.4C127.733 49.9112 127.587 49.5334 127.293 49.2667C127 48.9912 126.555 48.8534 125.96 48.8534C125.56 48.8534 125.164 48.9156 124.773 49.04C124.391 49.1645 124.067 49.3378 123.8 49.56L123.147 48.3467C123.529 48.0534 123.982 47.8356 124.507 47.6934C125.04 47.5422 125.591 47.4667 126.16 47.4667C127.191 47.4667 127.987 47.7156 128.547 48.2134C129.115 48.7022 129.4 49.4622 129.4 50.4934V54.6667H127.827ZM125.587 54.76C125.053 54.76 124.587 54.6712 124.187 54.4934C123.787 54.3067 123.475 54.0534 123.253 53.7334C123.04 53.4045 122.933 53.0356 122.933 52.6267C122.933 52.2267 123.027 51.8667 123.213 51.5467C123.409 51.2267 123.724 50.9734 124.16 50.7867C124.595 50.6 125.173 50.5067 125.893 50.5067H127.96V51.6133H126.013C125.444 51.6133 125.062 51.7067 124.867 51.8934C124.671 52.0712 124.573 52.2934 124.573 52.56C124.573 52.8622 124.693 53.1022 124.933 53.28C125.173 53.4578 125.507 53.5467 125.933 53.5467C126.342 53.5467 126.707 53.4534 127.027 53.2667C127.355 53.08 127.591 52.8045 127.733 52.44L128.013 53.44C127.853 53.8578 127.564 54.1822 127.147 54.4134C126.737 54.6445 126.217 54.76 125.587 54.76Z" fill="white"/>
<path d="M139.969 96.6667V89.6267L140.427 90.128H138.283V89.2H141.025V96.6667H139.969ZM144.712 97.7333L148.232 87.6853H149.16L145.64 97.7333H144.712ZM153.396 96.6667V89.6267L153.855 90.128H151.711V89.2H154.452V96.6667H153.396ZM159.135 96.752C158.553 96.752 158.03 96.6027 157.567 96.304C157.113 96.0053 156.75 95.5713 156.479 95.0027C156.217 94.434 156.085 93.744 156.085 92.9333C156.085 92.1227 156.217 91.4327 156.479 90.864C156.75 90.2953 157.113 89.8613 157.567 89.5627C158.03 89.264 158.553 89.1147 159.135 89.1147C159.711 89.1147 160.231 89.264 160.693 89.5627C161.155 89.8613 161.518 90.2953 161.781 90.864C162.044 91.4327 162.175 92.1227 162.175 92.9333C162.175 93.744 162.044 94.434 161.781 95.0027C161.518 95.5713 161.155 96.0053 160.693 96.304C160.231 96.6027 159.711 96.752 159.135 96.752ZM159.135 95.8027C159.527 95.8027 159.868 95.696 160.159 95.4827C160.458 95.2693 160.689 94.9493 160.853 94.5227C161.023 94.096 161.109 93.566 161.109 92.9333C161.109 92.3007 161.023 91.7707 160.853 91.344C160.689 90.9173 160.458 90.5973 160.159 90.384C159.868 90.1707 159.527 90.064 159.135 90.064C158.745 90.064 158.399 90.1707 158.101 90.384C157.802 90.5973 157.567 90.9173 157.397 91.344C157.233 91.7707 157.151 92.3007 157.151 92.9333C157.151 93.566 157.233 94.096 157.397 94.5227C157.567 94.9493 157.802 95.2693 158.101 95.4827C158.399 95.696 158.745 95.8027 159.135 95.8027ZM166.25 96.752C165.667 96.752 165.145 96.6027 164.682 96.304C164.227 96.0053 163.865 95.5713 163.594 95.0027C163.331 94.434 163.199 93.744 163.199 92.9333C163.199 92.1227 163.331 91.4327 163.594 90.864C163.865 90.2953 164.227 89.8613 164.682 89.5627C165.145 89.264 165.667 89.1147 166.25 89.1147C166.826 89.1147 167.345 89.264 167.807 89.5627C168.27 89.8613 168.633 90.2953 168.895 90.864C169.159 91.4327 169.29 92.1227 169.29 92.9333C169.29 93.744 169.159 94.434 168.895 95.0027C168.633 95.5713 168.27 96.0053 167.807 96.304C167.345 96.6027 166.826 96.752 166.25 96.752ZM166.25 95.8027C166.641 95.8027 166.983 95.696 167.274 95.4827C167.573 95.2693 167.804 94.9493 167.967 94.5227C168.138 94.096 168.223 93.566 168.223 92.9333C168.223 92.3007 168.138 91.7707 167.967 91.344C167.804 90.9173 167.573 90.5973 167.274 90.384C166.983 90.1707 166.641 90.064 166.25 90.064C165.859 90.064 165.514 90.1707 165.215 90.384C164.917 90.5973 164.682 90.9173 164.511 91.344C164.348 91.7707 164.266 92.3007 164.266 92.9333C164.266 93.566 164.348 94.096 164.511 94.5227C164.682 94.9493 164.917 95.2693 165.215 95.4827C165.514 95.696 165.859 95.8027 166.25 95.8027Z" fill="white"/>
<mask id="mask0_1575_25919" style="mask-type:luminance" maskUnits="userSpaceOnUse" x="40" y="108" width="228" height="6">
<path d="M265.333 108.667H42.6667C41.1939 108.667 40 109.861 40 111.333C40 112.806 41.1939 114 42.6667 114H265.333C266.806 114 268 112.806 268 111.333C268 109.861 266.806 108.667 265.333 108.667Z" fill="white"/>
</mask>
<g mask="url(#mask0_1575_25919)">
<path d="M265.333 108.667H42.6667C41.1939 108.667 40 109.861 40 111.333C40 112.806 41.1939 114 42.6667 114H265.333C266.806 114 268 112.806 268 111.333C268 109.861 266.806 108.667 265.333 108.667Z" fill="#20203B"/>
<path d="M44 108.667H42.6667C41.1939 108.667 40 109.861 40 111.333C40 112.806 41.1939 114 42.6667 114H44C45.4728 114 46.6667 112.806 46.6667 111.333C46.6667 109.861 45.4728 108.667 44 108.667Z" fill="#4947C7"/>
</g>
<path d="M252 144.667H56C47.1634 144.667 40 151.83 40 160.667V422C40 430.837 47.1634 438 56 438H252C260.837 438 268 430.837 268 422V160.667C268 151.83 260.837 144.667 252 144.667Z" fill="#20203B"/>
<path d="M244 160.667H64C59.5817 160.667 56 164.248 56 168.667V414C56 418.418 59.5817 422 64 422H244C248.418 422 252 418.418 252 414V168.667C252 164.248 248.418 160.667 244 160.667Z" fill="url(#paint0_linear_1575_25919)"/>
<path d="M127.93 395.073C128.531 396.171 127.649 398.35 127.528 398.129C126.523 398.771 126.224 397.642 125.623 396.544C125.023 395.447 124.703 394.45 125.709 393.809C126.715 393.167 127.329 393.975 127.93 395.073Z" fill="#C8CEFF"/>
<path d="M89.8906 375.993C90.1494 377.953 89.2351 378.828 89.1776 378.579C88.715 378.431 88.0562 377.711 87.7704 376.473C87.4845 375.237 87.442 374.183 88.5756 373.878C89.7092 373.573 89.7141 374.655 89.8906 375.993Z" fill="#C8CEFF"/>
<path d="M111.956 390.994C112.911 391.743 113.583 394.067 112.733 394.464C112.046 395.484 110.831 394.355 109.875 393.606C108.92 392.857 108.26 392.079 108.947 391.059C109.634 390.038 111.001 390.245 111.956 390.994Z" fill="#C8CEFF"/>
<path d="M235.333 402.174C236.115 403.131 236.301 405.556 235.392 405.743C234.516 406.578 233.557 405.191 232.776 404.235C231.995 403.279 231.507 402.364 232.384 401.53C233.26 400.696 234.553 401.218 235.333 402.174Z" fill="#C8CEFF"/>
<path d="M182.316 213.826C182.276 214.473 182.126 214.801 181.528 214.757C180.929 214.714 180.831 214.367 180.871 213.721C180.911 213.075 181.068 212.561 181.667 212.604C182.265 212.647 182.357 213.18 182.316 213.826Z" fill="#CBCEFF"/>
<path d="M111.932 267.053C111.891 267.699 111.742 268.028 111.143 267.984C110.545 267.941 110.447 267.595 110.487 266.948C110.527 266.302 110.684 265.787 111.282 265.831C111.881 265.874 111.972 266.407 111.932 267.053Z" fill="#CBCEFF"/>
<path d="M156.105 333.499C156.065 334.145 155.915 334.473 155.316 334.429C154.718 334.386 154.619 334.039 154.66 333.393C154.7 332.747 154.857 332.233 155.455 332.276C156.054 332.319 156.145 332.852 156.105 333.499Z" fill="#CBCEFF"/>
<path d="M173.485 345.224C173.444 345.87 173.295 346.199 172.696 346.155C172.097 346.112 171.999 345.765 172.039 345.119C172.079 344.473 172.236 343.958 172.835 344.002C173.433 344.045 173.525 344.578 173.485 345.224Z" fill="#CBCEFF"/>
<path d="M218.789 246.402C218.749 247.049 218.599 247.377 218 247.333C217.401 247.29 217.303 246.943 217.343 246.297C217.384 245.651 217.541 245.137 218.139 245.18C218.737 245.223 218.829 245.756 218.789 246.402Z" fill="#CBCEFF"/>
<path d="M84.6082 180.104C84.4382 180.091 84.2689 180.131 84.1295 180.25C83.8495 180.489 83.8269 180.929 84.0669 181.209C84.8889 182.168 85.3375 183.377 85.3375 184.667C85.3375 185.955 84.8862 187.166 84.0669 188.125C83.8275 188.405 83.8495 188.823 84.1295 189.063C84.4089 189.302 84.8275 189.28 85.0669 189C86.0902 187.802 86.6709 186.275 86.6709 184.667C86.6709 183.055 86.0942 181.533 85.0669 180.333C84.9469 180.193 84.7782 180.117 84.6082 180.104ZM82.7542 182C82.5855 181.977 82.4215 182.014 82.2749 182.125C81.9815 182.347 81.9069 182.769 82.1295 183.063C82.4749 183.519 82.6709 184.075 82.6709 184.667C82.6709 185.252 82.4735 185.813 82.1295 186.271C81.9082 186.565 81.9809 186.987 82.2749 187.209C82.5695 187.429 82.9915 187.357 83.2122 187.063C83.7289 186.375 84.0042 185.543 84.0042 184.667C84.0042 183.783 83.7322 182.958 83.2122 182.271C83.1015 182.124 82.9229 182.023 82.7542 182Z" fill="white"/>
<path d="M78.6666 178.667C78.306 178.667 77.9813 178.766 77.6873 178.937C77.5013 179.046 77.1526 179.35 76.5833 179.875C76.56 179.897 76.0233 180.409 75.75 180.667C75.5846 180.667 75.4113 180.666 75.3333 180.667C74.25 180.673 73.3413 181.588 73.3333 182.667V186.667C73.3453 187.789 74.214 188.677 75.3333 188.667C75.384 188.666 75.56 188.667 75.7293 188.667C75.9953 188.919 76.5406 189.438 76.5626 189.459C77.122 189.979 77.466 190.266 77.646 190.375C77.948 190.559 78.288 190.671 78.6666 190.667C79.7773 190.654 80.68 189.766 80.6666 188.667L80.646 184.667L80.6666 180.667C80.6653 179.553 79.7633 178.664 78.6666 178.667ZM78.6666 180C79.0293 179.999 79.3326 180.297 79.3333 180.667L79.3126 184.667L79.3333 188.667C79.3373 189.027 79.0473 189.329 78.6666 189.333C78.5493 189.335 78.4313 189.309 78.3333 189.25C78.272 189.213 77.9286 188.897 77.4793 188.479C77.4526 188.455 76.5166 187.577 76.4586 187.521C76.334 187.401 76.1726 187.333 76 187.333C75.9413 187.333 75.4253 187.333 75.3333 187.333C74.96 187.337 74.6706 187.057 74.6666 186.667V182.667C74.6693 182.32 74.9813 182.002 75.3333 182C75.4533 181.999 75.8873 182 76 182C76.172 182 76.334 181.932 76.4586 181.813C76.5173 181.756 77.4506 180.88 77.4793 180.854C77.9306 180.437 78.2953 180.117 78.354 180.083C78.454 180.025 78.5533 180 78.6666 180Z" fill="white"/>
<path d="M123.563 288.256C122.368 288.256 121.223 288.099 120.128 287.787C119.033 287.459 118.151 287.04 117.483 286.528L118.656 283.925C119.296 284.381 120.05 284.757 120.917 285.056C121.799 285.341 122.688 285.483 123.584 285.483C124.267 285.483 124.814 285.419 125.227 285.291C125.653 285.149 125.966 284.957 126.165 284.715C126.365 284.473 126.464 284.195 126.464 283.883C126.464 283.485 126.307 283.171 125.995 282.944C125.682 282.702 125.269 282.51 124.757 282.368C124.245 282.211 123.677 282.069 123.051 281.941C122.439 281.799 121.821 281.629 121.195 281.429C120.583 281.23 120.021 280.974 119.509 280.661C118.997 280.349 118.578 279.936 118.251 279.424C117.938 278.912 117.781 278.258 117.781 277.461C117.781 276.608 118.009 275.833 118.464 275.136C118.933 274.425 119.63 273.863 120.555 273.451C121.493 273.024 122.667 272.811 124.075 272.811C125.013 272.811 125.938 272.925 126.848 273.152C127.758 273.365 128.562 273.693 129.259 274.133L128.192 276.757C127.495 276.359 126.798 276.067 126.101 275.883C125.405 275.683 124.722 275.584 124.053 275.584C123.385 275.584 122.837 275.662 122.411 275.819C121.984 275.975 121.678 276.181 121.493 276.437C121.309 276.679 121.216 276.963 121.216 277.291C121.216 277.675 121.373 277.987 121.685 278.229C121.998 278.457 122.411 278.642 122.923 278.784C123.435 278.926 123.997 279.069 124.608 279.211C125.234 279.353 125.853 279.517 126.464 279.701C127.09 279.886 127.659 280.135 128.171 280.448C128.683 280.761 129.095 281.173 129.408 281.685C129.735 282.197 129.899 282.845 129.899 283.627C129.899 284.466 129.664 285.234 129.195 285.931C128.725 286.627 128.021 287.189 127.083 287.616C126.158 288.043 124.985 288.256 123.563 288.256ZM135.145 288V275.883H130.367V273.067H143.38V275.883H138.601V288H135.145ZM151.624 288.256C149.505 288.256 147.848 287.666 146.653 286.485C145.459 285.305 144.861 283.619 144.861 281.429V273.067H148.317V281.301C148.317 282.723 148.609 283.747 149.192 284.373C149.775 284.999 150.593 285.312 151.645 285.312C152.698 285.312 153.515 284.999 154.099 284.373C154.682 283.747 154.973 282.723 154.973 281.301V273.067H158.387V281.429C158.387 283.619 157.789 285.305 156.595 286.485C155.4 287.666 153.743 288.256 151.624 288.256ZM161.802 288V273.067H164.661L173.471 283.819H172.085V273.067H175.498V288H172.661L163.829 277.248H165.215V288H161.802ZM182.125 288V275.883H177.346V273.067H190.359V275.883H185.581V288H182.125Z" fill="white"/>
<path d="M136.55 309.733L140.07 299.685H140.998L137.478 309.733H136.55ZM142.472 308.731C142.003 308.731 141.555 308.667 141.128 308.539C140.709 308.411 140.378 308.254 140.136 308.069L140.563 307.259C140.805 307.422 141.103 307.561 141.459 307.675C141.815 307.789 142.177 307.845 142.547 307.845C143.023 307.845 143.365 307.778 143.571 307.643C143.784 307.507 143.891 307.319 143.891 307.077C143.891 306.899 143.827 306.761 143.699 306.661C143.571 306.562 143.4 306.487 143.187 306.437C142.981 306.387 142.749 306.345 142.493 306.309C142.237 306.267 141.981 306.217 141.725 306.16C141.469 306.096 141.235 306.011 141.021 305.904C140.808 305.79 140.637 305.637 140.509 305.445C140.381 305.246 140.317 304.983 140.317 304.656C140.317 304.315 140.413 304.016 140.605 303.76C140.797 303.504 141.068 303.309 141.416 303.173C141.772 303.031 142.191 302.96 142.675 302.96C143.045 302.96 143.418 303.006 143.795 303.099C144.179 303.184 144.492 303.309 144.733 303.472L144.296 304.283C144.04 304.112 143.773 303.995 143.496 303.931C143.219 303.867 142.941 303.835 142.664 303.835C142.216 303.835 141.882 303.909 141.661 304.059C141.441 304.201 141.331 304.386 141.331 304.613C141.331 304.805 141.395 304.955 141.523 305.061C141.658 305.161 141.829 305.239 142.035 305.296C142.248 305.353 142.483 305.403 142.739 305.445C142.995 305.481 143.251 305.531 143.507 305.595C143.763 305.651 143.994 305.733 144.2 305.84C144.413 305.947 144.584 306.096 144.712 306.288C144.847 306.48 144.915 306.736 144.915 307.056C144.915 307.397 144.815 307.693 144.616 307.941C144.417 308.19 144.136 308.386 143.773 308.528C143.411 308.663 142.977 308.731 142.472 308.731ZM148.136 308.731C147.567 308.731 147.126 308.578 146.813 308.272C146.501 307.966 146.344 307.529 146.344 306.96V301.776H147.368V306.917C147.368 307.223 147.443 307.458 147.592 307.621C147.749 307.785 147.969 307.867 148.253 307.867C148.573 307.867 148.84 307.778 149.053 307.6L149.373 308.336C149.217 308.471 149.029 308.571 148.808 308.635C148.595 308.699 148.371 308.731 148.136 308.731ZM145.384 303.856V303.013H148.989V303.856H145.384ZM152.894 302.949L155.059 308.667H154.057L152.841 305.296C152.784 305.139 152.723 304.965 152.659 304.773C152.595 304.581 152.539 304.397 152.489 304.219C152.439 304.041 152.403 303.895 152.382 303.781H152.339C152.318 303.895 152.279 304.045 152.222 304.229C152.165 304.407 152.105 304.592 152.041 304.784C151.977 304.969 151.916 305.139 151.859 305.296L150.643 308.667H149.641L151.817 302.949H152.894ZM159.047 302.96C159.509 302.96 159.914 303.049 160.263 303.227C160.618 303.405 160.895 303.675 161.095 304.037C161.294 304.4 161.393 304.859 161.393 305.413V308.667H160.369V305.531C160.369 304.983 160.234 304.571 159.964 304.293C159.701 304.016 159.327 303.877 158.844 303.877C158.481 303.877 158.165 303.949 157.895 304.091C157.625 304.233 157.415 304.443 157.265 304.72C157.123 304.997 157.052 305.342 157.052 305.755V308.667H156.028V303.013H157.009V304.539L156.849 304.133C157.034 303.763 157.319 303.475 157.703 303.269C158.087 303.063 158.535 302.96 159.047 302.96ZM165.23 308.731C164.661 308.731 164.22 308.578 163.907 308.272C163.594 307.966 163.438 307.529 163.438 306.96V301.776H164.462V306.917C164.462 307.223 164.537 307.458 164.686 307.621C164.842 307.785 165.063 307.867 165.347 307.867C165.667 307.867 165.934 307.778 166.147 307.6L166.467 308.336C166.311 308.471 166.122 308.571 165.902 308.635C165.689 308.699 165.465 308.731 165.23 308.731ZM162.478 303.856V303.013H166.083V303.856H162.478ZM166.436 309.733L169.956 299.685H170.884L167.364 309.733H166.436Z" fill="white"/>
</g>
<rect x="25" y="21" width="258" height="523.333" rx="31" stroke="white" stroke-opacity="0.25" stroke-width="2" shape-rendering="crispEdges"/>
</g>
<defs>
<filter id="filter0_d_1575_25919" x="0" y="0" width="308" height="573.333" filterUnits="userSpaceOnUse" color-interpolation-filters="sRGB">
<feFlood flood-opacity="0" result="BackgroundImageFix"/>
<feColorMatrix in="SourceAlpha" type="matrix" values="0 0 0 0 0 0 0 0 0 0 0 0 0 0 0 0 0 0 127 0" result="hardAlpha"/>
<feOffset dy="4"/>
<feGaussianBlur stdDeviation="12"/>
<feComposite in2="hardAlpha" operator="out"/>
<feColorMatrix type="matrix" values="0 0 0 0 1 0 0 0 0 1 0 0 0 0 1 0 0 0 0.25 0"/>
<feBlend mode="normal" in2="BackgroundImageFix" result="effect1_dropShadow_1575_25919"/>
<feBlend mode="normal" in="SourceGraphic" in2="effect1_dropShadow_1575_25919" result="shape"/>
</filter>
<linearGradient id="paint0_linear_1575_25919" x1="154" y1="160.667" x2="154" y2="422" gradientUnits="userSpaceOnUse">
<stop stop-color="#272684"/>
<stop offset="0.270833" stop-color="#3A38BC"/>
<stop offset="0.572733" stop-color="#4E4AC5"/>
<stop offset="0.760417" stop-color="#5F62E2"/>
<stop offset="1" stop-color="#6E74F5"/>
</linearGradient>
<clipPath id="clip0_1575_25919">
<rect x="24" y="20" width="260" height="525.333" rx="32" fill="white"/>
</clipPath>
</defs>
</svg>
