<svg width="64" height="26" viewBox="0 0 64 26" fill="none" xmlns="http://www.w3.org/2000/svg">
<path d="M11.3652 18.9105H0V3.25563H2.59777V16.6741H8.76747V14.4377H11.3652V18.9105Z" fill="white"/>
<path d="M24.3604 18.9105H15.2682C14.6404 18.9105 14.0992 18.6975 13.6446 18.2715C13.2117 17.8242 12.9952 17.2917 12.9952 16.6741V9.96485C12.9952 9.34717 13.2117 8.82534 13.6446 8.39936C14.0992 7.95208 14.6404 7.72844 15.2682 7.72844H22.0874C22.7152 7.72844 23.2456 7.95208 23.6785 8.39936C24.1331 8.82534 24.3604 9.34717 24.3604 9.96485V12.2013L22.0874 14.4377H15.593L17.5413 12.5207H22.0874V9.64536H15.2682V16.9935H24.3604V18.9105Z" fill="white"/>
<path d="M37.0233 18.9105H34.2307L31.1458 14.5016H30.8211L27.7363 18.9105H25.0086L29.5222 13.0319L25.3333 7.72844H28.061L30.8861 11.6901H31.2108L33.906 7.72844H36.6986L32.4447 13.0319L37.0233 18.9105Z" fill="white"/>
<path d="M50.0007 23.3833C50.0007 24.001 49.7734 24.5228 49.3188 24.9488C48.8858 25.396 48.3555 25.6197 47.7277 25.6197H38.3108L40.2591 23.7028H47.7277V17.313L46.1041 18.9105H40.9085C40.2807 18.9105 39.7395 18.6975 39.2849 18.2715C38.852 17.8242 38.6355 17.2917 38.6355 16.6741V7.72844H40.9085V16.9935H47.7277V7.72844H50.0007V23.3833Z" fill="white"/>
<path d="M64 7.72844L58.8369 12.1693V12.4888H61.0775C61.7053 12.4888 62.2357 12.7124 62.6686 13.1597C63.1233 13.5857 63.3506 14.1075 63.3506 14.7252V18.9105H61.0775V14.1182H54.2584V18.9105H51.9853V2.61665L54.2584 0.380249V13.8306L61.2399 7.72844H64Z" fill="white"/>
</svg>
